<svg xmlns="http://www.w3.org/2000/svg" viewBox="0 0 468.27281 320"><path d="M135.45737,318.08341A159.97722,159.97722,0,1,0,1.91659,135.45735,159.9774,159.9774,0,0,0,135.45737,318.08341ZM182.45165,15.39155c79.73666,12.37926,134.53671,87.32189,122.15726,167.05974C292.22952,262.18874,217.28682,316.988,137.55016,304.6087a145.30728,145.30728,0,0,1-56.30432-21.22417A7.92673,7.92673,0,0,1,89.781,270.0248a130.55983,130.55983,0,0,0,199.16232-90.00561C299.98171,108.9196,251.11874,42.09536,180.01955,31.05708,108.92016,20.01877,42.09483,68.88219,31.05649,139.98178a129.96327,129.96327,0,0,0,1.24114,47.01448,7.92642,7.92642,0,1,1-15.50928,3.2825A145.74533,145.74533,0,0,1,15.391,137.54968C27.7704,57.81182,102.7132,3.012,182.45165,15.39155ZM105.559,151.548a55.0933,55.0933,0,1,1,45.989,62.89319A55.09342,55.09342,0,0,1,105.559,151.548Z"/><circle cx="46.98416" cy="238.73031" r="13.63138" style="fill:#f8176b"/><path d="M459.42481,151.152H415.2026V108.848a8.848,8.848,0,0,0-17.696,0v42.304H357.12081a8.848,8.848,0,0,0,0,17.696H397.5066v42.304a8.848,8.848,0,1,0,17.696,0V168.848h44.22221a8.848,8.848,0,0,0,0-17.696Z"/></svg>