<svg xmlns="http://www.w3.org/2000/svg" viewBox="0 0 31.5 31.5"><path d="M15.75,31.5A15.75,15.75,0,1,1,22.09,1.33a.85.85,0,0,1,.44,1.12.86.86,0,0,1-1.13.44,13.83,13.83,0,0,0-5.65-1.18,14,14,0,1,0,13.14,9.06.85.85,0,1,1,1.59-.6,15.58,15.58,0,0,1,1,5.58A15.77,15.77,0,0,1,15.75,31.5Z"/><circle fill="#fc377e" class="cls-2" cx="26.46" cy="4.99" r="1.47"/><path d="M24.57,14.75a1.4,1.4,0,0,1,0,2,1.41,1.41,0,0,1-1,.4h-6.4v6.4a1.41,1.41,0,0,1-.4,1,1.4,1.4,0,0,1-2,0,1.41,1.41,0,0,1-.4-1v-6.4H8a1.42,1.42,0,0,1-1-.41,1.35,1.35,0,0,1-.42-1,1.31,1.31,0,0,1,.42-1,1.41,1.41,0,0,1,1-.4h6.4V8a1.41,1.41,0,0,1,.4-1,1.4,1.4,0,0,1,2,0,1.41,1.41,0,0,1,.4,1v6.4h6.4A1.41,1.41,0,0,1,24.57,14.75Z"/></svg>