<svg xmlns="http://www.w3.org/2000/svg" viewBox="0 0 111.3 90.1">
<g>
	<g transform="translate(4217 4435.986)">
		<path d="M-4136.3-4402.8h-62.9c-2,0-3.7-1.7-3.7-3.7c0-2,1.7-3.7,3.7-3.7h62.9c2,0,3.7,1.7,3.7,3.7
			C-4132.6-4404.5-4134.2-4402.8-4136.3-4402.8z"/>
		<path d="M-4136.3-4382.4h-62.9c-2,0-3.7-1.7-3.7-3.7c0-2,1.7-3.7,3.7-3.7h62.9c2,0,3.7,1.7,3.7,3.7
			C-4132.6-4384.1-4134.2-4382.4-4136.3-4382.4z"/>
		<path d="M-4161.6-4362h-37.6c-2,0-3.7-1.7-3.7-3.7c0-2,1.7-3.7,3.7-3.7h37.6c2,0,3.7,1.7,3.7,3.7
			C-4157.9-4363.7-4159.6-4362-4161.6-4362z"/>
		<path d="M-4127.9-4361.7c0.9,0.5,1.2,1.7,0.7,2.5c-0.2,0.3-0.4,0.5-0.7,0.7l-21.2,12.4
			c-0.9,0.5-2,0.2-2.5-0.7c-0.2-0.3-0.2-0.6-0.2-0.9v-24.8c0-1,0.8-1.9,1.9-1.8c0.3,0,0.6,0.1,0.9,0.2L-4127.9-4361.7z"/>
		<circle fill="#F8176B" cx="-4212.4" cy="-4406.5" r="4.6"/>
		<circle fill="#F8176B" cx="-4212.4" cy="-4386.1" r="4.6"/>
		<circle fill="#F8176B" cx="-4212.4" cy="-4367.6" r="4.6"/>
	</g>
	<path d="M108.7,13.6H97.4v-11c0-1.4-1.1-2.6-2.6-2.6c-1.4,0-2.6,1.2-2.6,2.6v11H82c-1.4,0-2.6,1.2-2.6,2.6
		c0,1.4,1.1,2.6,2.6,2.6h10.3v11c0,1.4,1.1,2.6,2.6,2.6c1.4,0,2.6-1.2,2.6-2.6v-11h11.3c1.4,0,2.6-1.2,2.6-2.6
		C111.3,14.8,110.1,13.6,108.7,13.6z"/>
</g>
</svg>
