<svg id="Calque_2" data-name="Calque 2" xmlns="http://www.w3.org/2000/svg" viewBox="0 0 390.96124 320"><title>add_player</title><path d="M382.11324,151.152H337.891V108.848a8.848,8.848,0,0,0-17.696,0v42.304H279.80924a8.848,8.848,0,1,0,0,17.696H320.195v42.304a8.848,8.848,0,0,0,17.696,0V168.848h44.22221a8.848,8.848,0,0,0,0-17.696Z" style="fill:#00233a"/><path d="M250.13758,10.02413a13.38144,13.38144,0,0,0-16.42022-9.405L125.59392,29.9837a13.38059,13.38059,0,1,0,7.01379,25.8257l108.123-29.36455a13.38166,13.38166,0,0,0,9.40692-16.42072Z" style="fill:#f8176b"/><path d="M193.80313,71.519a13.30756,13.30756,0,0,0-10.17832-1.137L75.50137,101.64086a13.3817,13.3817,0,1,0,7.43315,25.71045l108.123-31.25892A13.3823,13.3823,0,0,0,193.80313,71.519Z" style="fill:#f8176b"/><path d="M83.32288,276.64564V63.13282a13.38111,13.38111,0,0,0-26.76222,0V239.387a41.69838,41.69838,0,1,0,26.76222,37.25869Z" style="fill:#00233a"/><path d="M237.28436,0a13.3961,13.3961,0,0,0-13.38111,13.38063v175.797a41.9604,41.9604,0,0,0-44.394,9.45148,41.69091,41.69091,0,1,0,71.03083,32.74457,13.19813,13.19813,0,0,0,.12542-1.74715v-.87648c.00678-.431.00678-.86293,0-1.27066V13.38063A13.3961,13.3961,0,0,0,237.28436,0Z" style="fill:#00233a"/></svg>