<svg version="1.1" id="Calque_1" xmlns="http://www.w3.org/2000/svg" xmlns:xlink="http://www.w3.org/1999/xlink" x="0px" y="0px"
	 viewBox="0 0 386.8 320" style="enable-background:new 0 0 386.8 320;" xml:space="preserve">
<g>
	<g>
		<path fill="#00233A" d="M204,0H92.9c-1.3,0-2.5,0.3-3.7,0.8C88,1.3,86.9,2,86.1,2.9L2.8,86.1c-0.9,0.9-1.6,2-2.1,3.1
			C0.3,90.3,0,91.7,0,92.9v189.7C0,303.2,16.8,320,37.4,320h166.5c20.6,0,37.4-16.8,37.4-37.4V37.4C241.4,16.8,224.6,0,204,0z
			 M83.3,33.1v50.2H33.1L83.3,33.1z M221.9,282.7c0,10-8.1,18.1-18.1,18.1H37.4c-10,0-18.1-8.1-18.1-18.1V102.6h73.6
			c5.3,0,9.7-4.4,9.7-9.7V19.4h101.3c10,0,18.1,8.1,18.1,18.1L221.9,282.7L221.9,282.7z"/>
		<path fill="#F8176B" d="M172.7,151.4l-32.3-43.1c-2.8-3.6-7.9-4.8-12-2.3c-2.8,1.7-4.3,4.8-4.3,8v93.7c-10.8-4.1-23.7-1.2-31.7,8.5
			c-8.2,10.1-8.2,24.9-0.1,35.1c10.6,13.3,30.1,14.1,41.8,2.4c2.3-2.3,4.1-4.8,5.5-7.6c1.7-3.7,2.5-7.9,2.7-12
			c0.1-16.9,0.3-93.3,0.3-93.3l16.4,21.7c3.2,4.3,9.3,4.9,13.4,1.2C175.4,160.7,175.6,155.3,172.7,151.4z"/>
	</g>
	<path fill="#00233A" d="M377.9,151.2h-44.2v-42.3c0-4.9-4-8.8-8.9-8.8c-4.9,0-8.8,4-8.8,8.8v42.3h-40.4c-4.9,0-8.8,4-8.8,8.8
		c0,4.9,4,8.8,8.8,8.8H316v42.3c0,4.9,4,8.8,8.9,8.8c4.9,0,8.8-4,8.8-8.8v-42.3h44.2c4.9,0,8.8-4,8.8-8.8
		C386.8,155.2,382.8,151.2,377.9,151.2L377.9,151.2z"/>
</g>
</svg>
