<svg xmlns="http://www.w3.org/2000/svg" viewBox="0 0 471.53215 255"><path d="M462.68415,118.652H418.46194V76.348a8.848,8.848,0,0,0-17.696,0v42.304H360.38015a8.848,8.848,0,0,0,0,17.696h40.38579v42.304a8.848,8.848,0,0,0,17.696,0V136.348h44.22221a8.848,8.848,0,1,0,0-17.696Z"/><path d="M308.62378,115.49653a11.19875,11.19875,0,0,1-11.23713-11.1607V22.32139H108.17054a11.161,11.161,0,1,1,0-22.32139h190.9681C310.5647,0,319.8609,9.65093,319.8609,21.51391v82.82192A11.19875,11.19875,0,0,1,308.62378,115.49653Zm-9.48514-93.17514h0Z" style="fill:#f8176b"/><path d="M298.53652,58.519H176.44418c-.15792-.184-.27666-.38856-.448-.56492L123.13776,3.55323A11.91394,11.91394,0,0,0,114.65832,0L11.86362.48449A11.66767,11.66767,0,0,0,.21153,12.07531L0,78.508c-.00072.23183.02.45811.03275.68663C.02622,79.40977,0,79.61984,0,79.83654v153.846A21.41507,21.41507,0,0,0,21.4635,255h277.073A21.41507,21.41507,0,0,0,320,233.6825V79.83654A21.41507,21.41507,0,0,0,298.53652,58.519ZM109.765,23.27911,144.00565,58.519H23.47844l.11063-34.834ZM296.5853,231.74455H23.41472V81.77449H296.5853Z"/></svg>