<svg xmlns="http://www.w3.org/2000/svg" viewBox="0 0 37.24 31.43"><path fill="#fc377e" d="M8.32,11.87A1.25,1.25,0,0,1,7.13,11,1.23,1.23,0,0,1,8,9.45l10.39-3a1.23,1.23,0,1,1,.68,2.37l-10.38,3A1.39,1.39,0,0,1,8.32,11.87Z"/><path fill="#fc377e" d="M12.55,5.44A1.24,1.24,0,0,1,12.23,3L23.15,0a1.24,1.24,0,1,1,.65,2.39l-10.92,3A1.24,1.24,0,0,1,12.55,5.44Z"/><path d="M7,4.05A1.23,1.23,0,0,0,5.73,5.29v18.3A4.09,4.09,0,1,0,8.13,28a1.16,1.16,0,0,0,.07-.42V5.29A1.23,1.23,0,0,0,7,4.05Z"/><path d="M24.74,21.32V1.24a1.24,1.24,0,1,0-2.48,0V17.35a4.09,4.09,0,1,0,2.41,4.56,1.29,1.29,0,0,0,.07-.4Z"/><path d="M37,15.92A.78.78,0,0,1,37,17a.76.76,0,0,1-.56.22H32.91v3.53a.8.8,0,0,1-.21.57.77.77,0,0,1-.56.23.73.73,0,0,1-.55-.23.77.77,0,0,1-.22-.57V17.25H27.83a.77.77,0,0,1-.56-.23.74.74,0,0,1-.23-.54.75.75,0,0,1,.23-.56.8.8,0,0,1,.56-.22h3.54V12.17a.76.76,0,0,1,.22-.56.7.7,0,0,1,.55-.23.73.73,0,0,1,.56.23.79.79,0,0,1,.21.56V15.7h3.54A.8.8,0,0,1,37,15.92Z"/></svg>